<?xml version="1.0" standalone="no"?>
<!DOCTYPE svg PUBLIC "-//W3C//DTD SVG 20010904//EN"
 "http://www.w3.org/TR/2001/REC-SVG-20010904/DTD/svg10.dtd">
<svg version="1.0" xmlns="http://www.w3.org/2000/svg"
 width="25.000000pt" height="25.000000pt" viewBox="0 0 25.000000 25.000000"
 preserveAspectRatio="xMidYMid meet">

<g transform="translate(0.000000,25.000000) scale(0.100000,-0.100000)"
fill="#000000" stroke="none">
<path d="M12 242 c-16 -10 -13 -183 3 -189 6 -2 9 31 8 88 l-2 90 90 -3 c56
-2 88 1 86 7 -4 12 -167 18 -185 7z"/>
<path d="M54 187 c-2 -8 -4 -52 -2 -98 l3 -84 75 -3 c124 -5 121 -7 118 101
l-3 92 -93 3 c-71 2 -94 0 -98 -11z m176 -12 c0 -12 -16 -15 -85 -15 -78 0
-96 5 -78 23 3 4 42 7 85 7 63 0 78 -3 78 -15z m0 -95 l0 -60 -85 0 -85 0 0
60 0 60 85 0 85 0 0 -60z"/>
</g>
</svg>
