<?xml version="1.0" standalone="no"?>
<!DOCTYPE svg PUBLIC "-//W3C//DTD SVG 20010904//EN"
 "http://www.w3.org/TR/2001/REC-SVG-20010904/DTD/svg10.dtd">
<svg version="1.0" xmlns="http://www.w3.org/2000/svg"
 width="26.000000pt" height="25.000000pt" viewBox="0 0 26.000000 25.000000"
 preserveAspectRatio="xMidYMid meet">

<g transform="translate(0.000000,25.000000) scale(0.100000,-0.100000)"
fill="#000000" stroke="none">
<path d="M47 232 c-20 -22 -22 -91 -4 -116 9 -12 31 -20 65 -24 28 -2 57 -11
63 -18 16 -20 39 -17 39 4 0 9 9 23 20 30 16 10 20 23 20 65 0 29 -5 58 -12
65 -7 7 -43 12 -93 12 -67 0 -85 -3 -98 -18z m189 -26 c10 -42 0 -80 -23 -91
-13 -5 -23 -16 -23 -24 0 -12 -3 -11 -18 2 -9 9 -40 17 -67 19 l-50 3 -3 44
c-5 69 -3 71 92 71 82 0 86 -1 92 -24z"/>
<path d="M8 177 c-21 -50 0 -127 33 -127 5 0 9 -9 9 -20 0 -25 12 -25 34 -1
10 11 28 22 40 24 18 4 18 4 -4 6 -15 0 -31 -4 -37 -10 -8 -8 -18 -5 -37 12
-20 19 -26 35 -28 79 -2 36 -6 49 -10 37z"/>
</g>
</svg>
