<?xml version="1.0" standalone="no"?>
<!DOCTYPE svg PUBLIC "-//W3C//DTD SVG 20010904//EN"
 "http://www.w3.org/TR/2001/REC-SVG-20010904/DTD/svg10.dtd">
<svg version="1.0" xmlns="http://www.w3.org/2000/svg"
 width="24.000000pt" height="28.000000pt" viewBox="0 0 24.000000 28.000000"
 preserveAspectRatio="xMidYMid meet">

<g transform="translate(0.000000,28.000000) scale(0.100000,-0.100000)"
fill="#000000" stroke="none">
<path d="M60 246 l-55 -32 -2 -70 -3 -69 56 -37 c30 -21 60 -38 65 -38 5 0 34
17 65 37 l55 36 -3 71 -3 70 -55 32 c-30 18 -57 33 -60 33 -3 0 -30 -15 -60
-33z m113 -15 l49 -28 -46 -27 c-24 -14 -50 -26 -56 -26 -13 0 -103 51 -98 55
6 6 93 55 98 55 3 0 27 -13 53 -29z m-103 -77 c38 -26 40 -29 40 -81 l0 -54
-45 32 c-43 31 -45 35 -45 81 0 26 2 48 5 48 3 0 23 -12 45 -26z m150 -22 c0
-46 -2 -50 -45 -81 l-45 -32 0 54 c0 51 2 56 38 80 20 14 40 26 45 26 4 1 7
-21 7 -47z"/>
</g>
</svg>
