<?xml version="1.0" standalone="no"?>
<!DOCTYPE svg PUBLIC "-//W3C//DTD SVG 20010904//EN"
 "http://www.w3.org/TR/2001/REC-SVG-20010904/DTD/svg10.dtd">
<svg version="1.0" xmlns="http://www.w3.org/2000/svg"
 width="33.000000pt" height="24.000000pt" viewBox="0 0 33.000000 24.000000"
 preserveAspectRatio="xMidYMid meet">

<g transform="translate(0.000000,24.000000) scale(0.100000,-0.100000)"
fill="#000000" stroke="none">
<path d="M273 224 c-3 -9 -1 -25 5 -35 19 -29 15 -44 -6 -26 -10 10 -31 17
-45 17 -17 0 -27 5 -27 15 0 9 -9 15 -24 15 -13 0 -27 6 -30 13 -5 10 -7 10
-12 0 -3 -7 -17 -13 -30 -13 -15 0 -24 -6 -24 -15 0 -10 -10 -15 -28 -15 -15
0 -33 -5 -40 -12 -16 -16 -16 -140 0 -156 8 -8 51 -12 126 -12 112 0 114 0
153 32 28 23 39 39 39 59 0 15 -4 31 -10 34 -14 8 -13 41 2 64 9 15 9 23 -1
35 -17 21 -40 20 -48 0z m38 -19 c-1 -15 -24 -12 -29 3 -3 9 2 13 12 10 10 -1
17 -7 17 -13z m-121 -15 c0 -5 -20 -10 -45 -10 -25 0 -45 5 -45 10 0 6 20 10
45 10 25 0 45 -4 45 -10z m68 -32 c16 -16 16 -120 0 -136 -14 -14 -205 -17
-227 -3 -14 9 -20 119 -7 140 10 16 218 15 234 -1z m52 -48 c8 -14 8 -26 0
-40 -17 -32 -30 -23 -30 20 0 43 13 52 30 20z"/>
<path d="M50 101 c0 -15 6 -21 21 -21 25 0 22 33 -4 38 -12 2 -17 -3 -17 -17z
m30 -1 c0 -5 -4 -10 -10 -10 -5 0 -10 5 -10 10 0 6 5 10 10 10 6 0 10 -4 10
-10z"/>
<path d="M197 113 c-14 -13 -7 -33 11 -33 24 0 32 8 25 26 -5 15 -25 19 -36 7z
m23 -13 c0 -5 -5 -10 -11 -10 -5 0 -7 5 -4 10 3 6 8 10 11 10 2 0 4 -4 4 -10z"/>
<path d="M104 58 c-7 -12 21 -38 42 -38 17 0 37 27 29 40 -8 14 -62 13 -71 -2z
m49 -15 c-7 -2 -19 -2 -25 0 -7 3 -2 5 12 5 14 0 19 -2 13 -5z"/>
</g>
</svg>
