<?xml version="1.0" standalone="no"?>
<!DOCTYPE svg PUBLIC "-//W3C//DTD SVG 20010904//EN"
 "http://www.w3.org/TR/2001/REC-SVG-20010904/DTD/svg10.dtd">
<svg version="1.0" xmlns="http://www.w3.org/2000/svg"
 width="24.000000pt" height="24.000000pt" viewBox="0 0 24.000000 24.000000"
 preserveAspectRatio="xMidYMid meet">

<g transform="translate(0.000000,24.000000) scale(0.100000,-0.100000)"
fill="#000000" stroke="none">
<path d="M75 215 c-20 -19 -25 -34 -25 -74 0 -27 4 -53 10 -56 18 -11 11 -22
-25 -44 -19 -11 -35 -25 -35 -31 0 -6 44 -10 120 -10 76 0 120 4 120 10 0 6
-16 20 -35 31 -36 22 -43 33 -25 44 6 3 10 29 10 56 0 40 -5 55 -25 74 -13 14
-33 25 -45 25 -11 0 -32 -11 -45 -25z m85 -10 c6 -8 14 -31 17 -52 6 -43 -25
-93 -57 -93 -47 0 -77 91 -44 138 18 26 65 30 84 7z m19 -166 c54 -19 34 -29
-59 -29 -91 0 -113 10 -62 28 37 14 83 14 121 1z"/>
</g>
</svg>
